<?xml version="1.0" encoding="UTF-8"?><svg id="Layer_1" xmlns="http://www.w3.org/2000/svg" viewBox="0 0 32 32"><defs><style>.cls-1{fill:none;}.cls-2{fill:#0095d4;}.cls-3{fill:#49443c;}</style></defs><path class="cls-3" d="m6.46,17.25c.08-.19.17-.3.17-.41,0-.07-.17-.21-.2-.19-.09.05-.17.17-.19.28-.01.07.11.16.23.32m-1.45-.78c.26-.62.58-1.16,1.23-1.25.76-.1,1.4.43,1.57,1.3.16.87-.24,1.69-.95,1.97-.69.27-1.44-.15-1.74-.97-.04-.1-.07-.2-.11-.3v-.76Z"/><path class="cls-3" d="m22.92,5.34c.01-1.45-.92-2.6-2.14-2.61-1.18,0-2.16,1.14-2.16,2.54,0,1.38.95,2.55,2.1,2.57,1.18.02,2.17-1.11,2.19-2.5m1.19-.02c0,2.17-1.5,3.94-3.32,3.95-1.85,0-3.37-1.8-3.36-4.01,0-2.16,1.5-3.93,3.33-3.94,1.88,0,3.35,1.75,3.35,4"/><path class="cls-3" d="m13.26,6.23c0,.9.59,1.6,1.33,1.61.75,0,1.34-.73,1.33-1.64-.01-.85-.62-1.56-1.32-1.56-.74,0-1.34.72-1.33,1.6m3.86.05c-.02,1.65-1.18,3-2.56,2.98-1.4-.02-2.51-1.41-2.49-3.11.01-1.65,1.18-2.98,2.58-2.94,1.41.04,2.5,1.4,2.47,3.07"/><path class="cls-3" d="m11.07,8.92c0-.63-.43-1.15-.96-1.15-.52,0-.97.54-.95,1.16.01.6.44,1.11.95,1.12.54,0,.97-.49.97-1.13m1.19.04c0,1.4-.95,2.51-2.13,2.51-1.23,0-2.17-1.12-2.17-2.57,0-1.41.98-2.55,2.16-2.55,1.21,0,2.15,1.14,2.14,2.61"/><path class="cls-3" d="m8.08,12.79c0-.42-.32-.78-.67-.76-.35.02-.65.4-.63.82.02.4.32.74.65.74.36,0,.66-.37.65-.79m-.66-2.19c1.01,0,1.84.97,1.86,2.19.02,1.18-.83,2.2-1.84,2.22-.99.02-1.86-1.01-1.86-2.19,0-1.21.83-2.21,1.84-2.21"/><path class="cls-3" d="m6.46,17.25c-.12-.16-.24-.25-.23-.32.02-.11.1-.23.19-.28.04-.02.2.12.2.19,0,.11-.08.22-.17.41"/><path class="cls-3" d="m22.92,5.34c-.01,1.39-1.01,2.53-2.19,2.5-1.15-.02-2.1-1.19-2.1-2.57,0-1.4.97-2.55,2.16-2.54,1.21,0,2.15,1.16,2.14,2.61"/><path class="cls-3" d="m13.26,6.23c0-.88.59-1.6,1.33-1.6.71,0,1.31.71,1.32,1.56.01.92-.58,1.65-1.33,1.64-.74,0-1.32-.71-1.32-1.61"/><path class="cls-3" d="m11.07,8.92c0,.63-.43,1.13-.97,1.13-.51,0-.94-.51-.95-1.12-.01-.62.43-1.16.95-1.16.53,0,.96.51.96,1.15"/><path class="cls-3" d="m8.08,12.79c0,.42-.29.79-.65.79-.34,0-.64-.33-.65-.74-.02-.41.28-.8.63-.82.35-.02.66.34.67.76"/><path class="cls-2" d="m14.61,10.94c-1.74,1.04-3.02,2.46-3.84,4.26-.82,1.8-1.31,3.75-1.47,5.86l-.06.97s-.35,2.28.28,6.38c.15.94.35,1.62.37,1.74.1.34.29.56.59.69.29.12.59.11.9-.04.41-.27.58-.65.49-1.13v.02c-.41-2.03-.63-4.17-.64-6.42-.01-2.25.31-4.33.98-6.23.66-1.9,1.8-3.34,3.41-4.31.96-.52,1.78-.76,2.45-.71.68.05,1.22.26,1.63.65.45.4.79.98,1,1.75.21.76.24,1.68.08,2.73-.2,1.02-.77,1.95-1.68,2.77-.92.82-1.99,1.46-3.2,1.92-1.21.46-2.38.65-3.49.59-.28-.01-.53.07-.73.25s-.32.41-.35.7c-.01.29.07.54.25.74.18.2.41.32.7.35,1.32.08,2.74-.15,4.26-.7,1.52-.55,2.87-1.35,4.05-2.42,1.18-1.07,1.91-2.36,2.2-3.86.41-2.68-.16-4.79-1.72-6.32-1.72-1.5-3.87-1.56-6.44-.2"/><polyline class="cls-1" points="100.47 1.32 5.01 1.32 5.01 32"/></svg>